<?xml version="1.0" encoding="UTF-8"?>
<svg id="Layer_1" data-name="Layer 1" xmlns="http://www.w3.org/2000/svg" viewBox="0 0 404.6596963 439.8664712">
  <defs>
    <style>
      .cls-1 {
        fill: #fff;
      }

      .cls-2 {
        fill: #fa0303;
      }
    </style>
  </defs>
  <polyline class="cls-2" points="160.688364 152.2688893 223.1511816 152.2688942 251.4626993 83.4349782 132.3768483 83.4349781 115.2183606 41.7174723 268.6211917 41.7174609 285.779661 0 0 .0000018 202.3298482 348.3410806 404.6596963 .0000018 306.6235843 .0000018 202.3298482 253.569816 202.1484678 253.0710199 160.688364 152.2688893"/>
  <g>
    <path class="cls-1" d="m56.8654927,406.8664712h-3.5703125c-.5878906,0-.8818359-.2939453-.8818359-.8818359v-25.2421875c0-.5878906.2939453-.8818359.8818359-.8818359h13.3979492c.5600586,0,.840332.2939453.840332.8818359v2.8554688c0,.5878906-.2802734.8818359-.840332.8818359h-8.4418945c-.3359375,0-.5039062.1542969-.5039062.4628906v6.5097656c0,.3359375.1679688.5039062.5039062.5039062h7.1821289c.5878906,0,.8818359.2939453.8818359.8818359v2.8144531c0,.6162109-.2939453.9238281-.8818359.9238281h-7.1821289c-.3359375,0-.5039062.1542969-.5039062.4619141v8.9462891c0,.5878906-.2939453.8818359-.8818359.8818359Z"/>
    <path class="cls-1" d="m85.9294575,406.8664712h-13.734375c-.5878906,0-.8818359-.2939453-.8818359-.8818359v-25.2421875c0-.5878906.2939453-.8818359.8818359-.8818359h13.734375c.5595703,0,.8398438.2939453.8398438.8818359v2.8554688c0,.5878906-.2802734.8818359-.8398438.8818359h-8.7783203c-.3359375,0-.5039062.1542969-.5039062.4628906v5.4599609c0,.3076172.1679688.4619141.5039062.4619141h7.1821289c.5878906,0,.8818359.2939453.8818359.8818359v2.8554688c0,.5888672-.2939453.8828125-.8818359.8828125h-7.1821289c-.3359375,0-.5039062.1542969-.5039062.4619141v5.8378906c0,.3085938.1679688.4619141.5039062.4619141h8.7783203c.5595703,0,.8398438.2939453.8398438.8818359v2.8564453c0,.5878906-.2802734.8818359-.8398438.8818359Z"/>
    <path class="cls-1" d="m91.4309224,405.9846353v-25.2421875c0-.5878906.2939453-.8818359.8818359-.8818359h10.3740234c2.184082,0,3.8852539.5947266,5.1030273,1.7841797,1.2182617,1.1904297,1.8271484,2.8769531,1.8271484,5.0615234v13.3144531c0,2.1835938-.6088867,3.8710938-1.8271484,5.0605469-1.2177734,1.1904297-2.9189453,1.7851562-5.1030273,1.7851562h-10.3740234c-.5878906,0-.8818359-.2939453-.8818359-.8818359Zm5.7958984-3.7382812h4.578125c.8959961,0,1.5332031-.1884766,1.9111328-.5664062.3779297-.3789062.5668945-1.0146484.5668945-1.9121094v-12.8095703c0-.8955078-.1889648-1.5332031-.5668945-1.9111328s-1.0151367-.5673828-1.9111328-.5673828h-4.578125c-.3081055,0-.4619141.1542969-.4619141.4628906v16.8417969c0,.3085938.1538086.4619141.4619141.4619141Z"/>
    <path class="cls-1" d="m129.2727193,406.8664712h-13.734375c-.5878906,0-.8818359-.2939453-.8818359-.8818359v-25.2421875c0-.5878906.2939453-.8818359.8818359-.8818359h13.734375c.5595703,0,.8398438.2939453.8398438.8818359v2.8554688c0,.5878906-.2802734.8818359-.8398438.8818359h-8.7783203c-.3359375,0-.5039062.1542969-.5039062.4628906v5.4599609c0,.3076172.1679688.4619141.5039062.4619141h7.1821289c.5878906,0,.8818359.2939453.8818359.8818359v2.8554688c0,.5888672-.2939453.8828125-.8818359.8828125h-7.1821289c-.3359375,0-.5039062.1542969-.5039062.4619141v5.8378906c0,.3085938.1679688.4619141.5039062.4619141h8.7783203c.5595703,0,.8398438.2939453.8398438.8818359v2.8564453c0,.5878906-.2802734.8818359-.8398438.8818359Z"/>
    <path class="cls-1" d="m139.2263325,406.8664712h-3.5703125c-.5878906,0-.8818359-.2939453-.8818359-.8818359v-25.2421875c0-.5878906.2939453-.8818359.8818359-.8818359h9.9960938c2.184082,0,3.8916016.6025391,5.1240234,1.8056641,1.2319336,1.2041016,1.8481445,2.8984375,1.8481445,5.0820312v3.2763672c0,3.1640625-1.2460938,5.2636719-3.7382812,6.2998047v.1679688l4.4941406,9.3662109c.2519531.671875.0136719,1.0078125-.7138672,1.0078125h-3.4018555c-.5043945,0-.8686523-.0556641-1.0922852-.1679688-.2246094-.1113281-.40625-.3496094-.5458984-.7138672l-4.2001953-9.0722656h-2.8139648c-.3359375,0-.5039062.1542969-.5039062.4619141v8.6103516c0,.5878906-.2939453.8818359-.8818359.8818359Zm1.34375-14.2382812h4.1162109c.8955078,0,1.5537109-.1884766,1.9741211-.5673828.4199219-.3779297.6298828-.9863281.6298828-1.8261719v-3.2763672c0-.8671875-.2099609-1.4980469-.6298828-1.8896484-.4204102-.3925781-1.0786133-.5888672-1.9741211-.5888672h-4.1162109c-.3081055,0-.4619141.1542969-.4619141.4628906v7.2236328c0,.3085938.1538086.4619141.4619141.4619141Z"/>
    <path class="cls-1" d="m160.56227,406.8664712h-4.0317383c-.5043945,0-.6723633-.2939453-.5043945-.8818359l6.6362305-25.2421875c.1953125-.5878906.6157227-.8818359,1.2597656-.8818359h5.5864258c.6992188,0,1.1191406.2939453,1.2597656.8818359l6.6362305,25.2421875c.1679688.5878906,0,.8818359-.5043945.8818359h-4.0317383c-.3085938,0-.5185547-.0634766-.6298828-.1894531-.1123047-.1259766-.1962891-.3564453-.2524414-.6923828l-1.1757812-4.6201172h-8.1899414l-1.1762695,4.6201172c-.0561523.3359375-.1469727.5664062-.2729492.6923828s-.3291016.1894531-.6088867.1894531Zm6.0898438-21.9238281l-3.0239258,12.1376953h6.2163086l-3.0244141-12.1376953h-.1679688Z"/>
    <path class="cls-1" d="m195.8420552,406.8664712h-13.8183594c-.5878906,0-.8818359-.2939453-.8818359-.8818359v-25.2421875c0-.5878906.2939453-.8818359.8818359-.8818359h3.5703125c.5878906,0,.8818359.2939453.8818359.8818359v21c0,.3085938.1679688.4619141.5039062.4619141h8.8623047c.5595703,0,.8398438.3085938.8398438.9238281v2.8564453c0,.5878906-.2802734.8818359-.8398438.8818359Z"/>
    <path class="cls-1" d="m220.2419575,406.8664712h-5.5019531c-.5878906,0-.9384766-.2939453-1.0498047-.8818359l-6.5097656-25.1582031c-.1962891-.6435547.0839844-.9658203.8398438-.9658203h3.9482422c.5595703,0,.8955078.2939453,1.0078125.8818359l4.4101562,20.6640625h.1679688l4.4101562-20.6640625c.1113281-.5878906.4472656-.8818359,1.0078125-.8818359h3.9482422c.6992188,0,.9794922.3222656.8398438.9658203l-6.5097656,25.1582031c-.140625.5878906-.4765625.8818359-1.0087891.8818359Z"/>
    <path class="cls-1" d="m245.7360982,406.8664712h-13.734375c-.5878906,0-.8818359-.2939453-.8818359-.8818359v-25.2421875c0-.5878906.2939453-.8818359.8818359-.8818359h13.734375c.5595703,0,.8398438.2939453.8398438.8818359v2.8554688c0,.5878906-.2802734.8818359-.8398438.8818359h-8.7783203c-.3359375,0-.5039062.1542969-.5039062.4628906v5.4599609c0,.3076172.1679688.4619141.5039062.4619141h7.1826172c.5878906,0,.8818359.2939453.8818359.8818359v2.8554688c0,.5888672-.2939453.8828125-.8818359.8828125h-7.1826172c-.3359375,0-.5039062.1542969-.5039062.4619141v5.8378906c0,.3085938.1679688.4619141.5039062.4619141h8.7783203c.5595703,0,.8398438.2939453.8398438.8818359v2.8564453c0,.5878906-.2802734.8818359-.8398438.8818359Z"/>
    <path class="cls-1" d="m255.6062154,406.8664712h-3.4863281c-.5878906,0-.8818359-.2939453-.8818359-.8818359v-25.2421875c0-.5878906.2939453-.8818359.8818359-.8818359h3.1503906c.5878906,0,.9794922.1962891,1.1757812.5878906l8.484375,15.9179688h.1679688v-15.6240234c0-.5878906.2929688-.8818359.8808594-.8818359h3.4863281c.5878906,0,.8828125.2939453.8828125.8818359v25.2421875c0,.5878906-.2949219.8818359-.8828125.8818359h-3.0664062c-.6152344,0-1.0644531-.2792969-1.34375-.8398438l-8.3994141-15.6240234h-.1679688v15.5820312c0,.5878906-.2939453.8818359-.8818359.8818359Z"/>
    <path class="cls-1" d="m275.8083638,405.9846353v-25.2421875c0-.5878906.2939453-.8818359.8818359-.8818359h10.3740234c2.1835938,0,3.8847656.5947266,5.1025391,1.7841797,1.2177734,1.1904297,1.8271484,2.8769531,1.8271484,5.0615234v13.3144531c0,2.1835938-.609375,3.8710938-1.8271484,5.0605469-1.2177734,1.1904297-2.9189453,1.7851562-5.1025391,1.7851562h-10.3740234c-.5878906,0-.8818359-.2939453-.8818359-.8818359Zm5.7958984-3.7382812h4.5771484c.8964844,0,1.5332031-.1884766,1.9111328-.5664062.3779297-.3789062.5673828-1.0146484.5673828-1.9121094v-12.8095703c0-.8955078-.1894531-1.5332031-.5673828-1.9111328s-1.0146484-.5673828-1.9111328-.5673828h-4.5771484c-.3085938,0-.4619141.1542969-.4619141.4628906v16.8417969c0,.3085938.1533203.4619141.4619141.4619141Z"/>
    <path class="cls-1" d="m304.577895,380.7424478v25.2421875c0,.5878906-.2939453.8818359-.8828125.8818359h-3.5693359c-.5878906,0-.8818359-.2939453-.8818359-.8818359v-25.2421875c0-.5878906.2939453-.8818359.8818359-.8818359h3.5693359c.5888672,0,.8828125.2939453.8828125.8818359Z"/>
    <path class="cls-1" d="m314.6150044,406.8664712h-3.4853516c-.5878906,0-.8818359-.2939453-.8818359-.8818359v-25.2421875c0-.5878906.2939453-.8818359.8818359-.8818359h3.1494141c.5878906,0,.9804688.1962891,1.1767578.5878906l8.4833984,15.9179688h.1679688v-15.6240234c0-.5878906.2939453-.8818359.8818359-.8818359h3.4863281c.5878906,0,.8818359.2939453.8818359.8818359v25.2421875c0,.5878906-.2939453.8818359-.8818359.8818359h-3.0664062c-.6162109,0-1.0644531-.2792969-1.34375-.8398438l-8.3994141-15.6240234h-.1679688v15.5820312c0,.5878906-.2949219.8818359-.8828125.8818359Z"/>
    <path class="cls-1" d="m345.7790669,406.8664712h-4.4521484c-2.2128906,0-3.9208984-.5878906-5.1240234-1.7636719-1.2041016-1.1767578-1.8066406-2.8701172-1.8066406-5.0820312v-13.3144531c0-2.2119141.6025391-3.90625,1.8066406-5.0820312,1.203125-1.1757812,2.9111328-1.7636719,5.1240234-1.7636719h4.4521484c2.1835938,0,3.8769531.5947266,5.0820312,1.7841797,1.203125,1.1904297,1.8056641,2.8769531,1.8056641,5.0615234v1.2597656c0,.6162109-.2939453.9238281-.8818359.9238281h-3.5703125c-.5878906,0-.8818359-.3076172-.8818359-.9238281v-1.0078125c0-.8955078-.1826172-1.5332031-.5458984-1.9111328-.3642578-.3779297-.9941406-.5673828-1.890625-.5673828h-2.7294922c-.8681641,0-1.4912109.1894531-1.8691406.5673828s-.5673828,1.015625-.5673828,1.9111328v12.8095703c0,.8974609.1894531,1.5332031.5673828,1.9121094.3779297.3779297,1.0009766.5664062,1.8691406.5664062h2.7294922c.8964844,0,1.5263672-.1884766,1.890625-.5664062.3632812-.3789062.5458984-1.0146484.5458984-1.9121094v-2.6455078c0-.3076172-.1542969-.4619141-.4619141-.4619141h-2.5205078c-.5878906,0-.8818359-.2939453-.8818359-.8818359v-2.8564453c0-.5878906.2939453-.8818359.8818359-.8818359h7.3505859c.6435547,0,.9658203.3222656.9658203.9658203v7.0146484c0,2.1835938-.6025391,3.8710938-1.8056641,5.0605469-1.2050781,1.1904297-2.8984375,1.7851562-5.0820312,1.7851562Z"/>
    <path class="cls-1" d="m133.6189107,432.9787759v-.8398438c0-.5888672.2939453-.8828125.8818359-.8828125h3.5698242c.5883789,0,.8823242.2939453.8823242.8828125v.3359375c0,1.0644531.2099609,1.7919922.6298828,2.1835938.4199219.3925781,1.1899414.5878906,2.3100586.5878906h1.9741211c1.0917969,0,1.8544922-.2099609,2.2890625-.6298828.4335938-.4199219.6508789-1.203125.6508789-2.3515625v-.5048828c0-.8115234-.3295898-1.4345703-.9873047-1.8681641-.6582031-.4345703-1.4770508-.6933594-2.4570312-.7773438s-2.0366211-.2451172-3.1708984-.4833984c-1.1337891-.2373047-2.190918-.5458984-3.1708984-.9238281-.9804688-.3779297-1.7993164-1.1191406-2.4570312-2.2255859-.6582031-1.1064453-.9868164-2.5263672-.9868164-4.2636719v-1.4697266c0-2.1835938.6152344-3.8779297,1.8476562-5.0820312,1.2319336-1.203125,2.9404297-1.8056641,5.1240234-1.8056641h4.2001953c2.2114258,0,3.9335938.6025391,5.1660156,1.8056641,1.2319336,1.2041016,1.8481445,2.8984375,1.8481445,5.0820312v.7978516c0,.5878906-.2939453.8818359-.8823242.8818359h-3.5698242c-.5878906,0-.8818359-.2939453-.8818359-.8818359v-.2519531c0-1.0917969-.2099609-1.8330078-.6303711-2.2255859-.4199219-.3916016-1.1904297-.5878906-2.3095703-.5878906h-1.6381836c-1.1484375,0-1.925293.2167969-2.3310547.6503906-.40625.4345703-.6088867,1.28125-.6088867,2.5410156v.7978516c0,1.3173828,1.1474609,2.0732422,3.4438477,2.2685547,2.3793945.1962891,4.4941406.671875,6.3422852,1.4277344.9794922.4199219,1.7983398,1.1699219,2.456543,2.2470703.6577148,1.078125.9873047,2.4570312.9873047,4.1367188v1.4287109c0,2.1835938-.6162109,3.8779297-1.8481445,5.0820312-1.2324219,1.2041016-2.9399414,1.8056641-5.1240234,1.8056641h-4.578125c-2.1835938,0-3.8920898-.6015625-5.1240234-1.8056641-1.2324219-1.2041016-1.8476562-2.8984375-1.8476562-5.0820312Z"/>
    <path class="cls-1" d="m171.5442036,439.8664712h-13.734375c-.5878906,0-.8818359-.2939453-.8818359-.8818359v-25.2421875c0-.5878906.2939453-.8818359.8818359-.8818359h13.734375c.5595703,0,.8398438.2939453.8398438.8818359v2.8564453c0,.5878906-.2802734.8818359-.8398438.8818359h-8.7783203c-.3359375,0-.5039062.1542969-.5039062.4619141v5.4599609c0,.3085938.1679688.4619141.5039062.4619141h7.1821289c.5878906,0,.8818359.2939453.8818359.8818359v2.8564453c0,.5878906-.2939453.8818359-.8818359.8818359h-7.1821289c-.3359375,0-.5039062.1542969-.5039062.4619141v5.8378906c0,.3085938.1679688.4619141.5039062.4619141h8.7783203c.5595703,0,.8398438.2939453.8398438.8818359v2.8564453c0,.5878906-.2802734.8818359-.8398438.8818359Z"/>
    <path class="cls-1" d="m181.4978169,439.8664712h-3.5703125c-.5878906,0-.8818359-.2939453-.8818359-.8818359v-25.2421875c0-.5878906.2939453-.8818359.8818359-.8818359h9.9960938c2.184082,0,3.8916016.6025391,5.1240234,1.8056641,1.2319336,1.2041016,1.8481445,2.8984375,1.8481445,5.0820312v3.2763672c0,3.1640625-1.2460938,5.2646484-3.7382812,6.2998047v.1679688l4.4941406,9.3662109c.2519531.671875.0136719,1.0078125-.7138672,1.0078125h-3.4018555c-.5043945,0-.8686523-.0556641-1.0922852-.1679688-.2246094-.1113281-.40625-.3496094-.5458984-.7138672l-4.2001953-9.0722656h-2.8139648c-.3359375,0-.5039062.1542969-.5039062.4619141v8.6103516c0,.5878906-.2939453.8818359-.8818359.8818359Zm1.34375-14.2382812h4.1162109c.8955078,0,1.5537109-.1884766,1.9741211-.5664062.4199219-.3779297.6298828-.9873047.6298828-1.8271484v-3.2763672c0-.8671875-.2099609-1.4970703-.6298828-1.8896484-.4204102-.3916016-1.0786133-.5878906-1.9741211-.5878906h-4.1162109c-.3081055,0-.4619141.1542969-.4619141.4619141v7.2236328c0,.3085938.1538086.4619141.4619141.4619141Z"/>
    <path class="cls-1" d="m211.0232075,439.8664712h-5.5019531c-.5878906,0-.9384766-.2939453-1.0498047-.8818359l-6.5097656-25.1582031c-.1962891-.6435547.0839844-.9658203.840332-.9658203h3.9477539c.5600586,0,.8955078.2939453,1.0078125.8818359l4.4101562,20.6640625h.1679688l4.4101562-20.6640625c.1113281-.5878906.4472656-.8818359,1.0078125-.8818359h3.9482422c.6992188,0,.9794922.3222656.8398438.9658203l-6.5097656,25.1582031c-.140625.5878906-.4765625.8818359-1.0087891.8818359Z"/>
    <path class="cls-1" d="m227.4450825,413.7424478v25.2421875c0,.5878906-.2939453.8818359-.8818359.8818359h-3.5703125c-.5878906,0-.8818359-.2939453-.8818359-.8818359v-25.2421875c0-.5878906.2939453-.8818359.8818359-.8818359h3.5703125c.5878906,0,.8818359.2939453.8818359.8818359Z"/>
    <path class="cls-1" d="m244.202895,439.8664712h-4.5771484c-2.2128906,0-3.9208984-.5878906-5.1240234-1.7636719-1.2050781-1.1767578-1.8066406-2.8701172-1.8066406-5.0820312v-13.3144531c0-2.2109375.6015625-3.90625,1.8066406-5.0820312,1.203125-1.1757812,2.9111328-1.7636719,5.1240234-1.7636719h4.5771484c2.1845703,0,3.8857422.5947266,5.1035156,1.7851562s1.8271484,2.8769531,1.8271484,5.0605469v1.9746094c0,.6162109-.3085938.9238281-.9238281.9238281h-3.5283203c-.5878906,0-.8818359-.3076172-.8818359-.9238281v-1.7226562c0-.8955078-.1894531-1.5332031-.5673828-1.9111328s-1.015625-.5664062-1.9111328-.5664062h-2.8554688c-.8681641,0-1.4912109.1884766-1.8691406.5664062s-.5673828,1.015625-.5673828,1.9111328v12.8105469c0,.8964844.1894531,1.5322266.5673828,1.9111328.3779297.3779297,1.0009766.5664062,1.8691406.5664062h2.8554688c.8955078,0,1.5332031-.1884766,1.9111328-.5664062.3779297-.3789062.5673828-1.0146484.5673828-1.9111328v-1.7226562c0-.6152344.2939453-.9238281.8818359-.9238281h3.5283203c.6152344,0,.9238281.3085938.9238281.9238281v1.9746094c0,2.1835938-.609375,3.8710938-1.8271484,5.0605469-1.2177734,1.1904297-2.9189453,1.7851562-5.1035156,1.7851562Z"/>
    <path class="cls-1" d="m270.3269185,439.8664712h-13.734375c-.5878906,0-.8818359-.2939453-.8818359-.8818359v-25.2421875c0-.5878906.2939453-.8818359.8818359-.8818359h13.734375c.5605469,0,.8398438.2939453.8398438.8818359v2.8564453c0,.5878906-.2792969.8818359-.8398438.8818359h-8.7783203c-.3359375,0-.5039062.1542969-.5039062.4619141v5.4599609c0,.3085938.1679688.4619141.5039062.4619141h7.1826172c.5878906,0,.8818359.2939453.8818359.8818359v2.8564453c0,.5878906-.2939453.8818359-.8818359.8818359h-7.1826172c-.3359375,0-.5039062.1542969-.5039062.4619141v5.8378906c0,.3085938.1679688.4619141.5039062.4619141h8.7783203c.5605469,0,.8398438.2939453.8398438.8818359v2.8564453c0,.5878906-.2792969.8818359-.8398438.8818359Z"/>
  </g>
</svg>